<svg xmlns="http://www.w3.org/2000/svg" viewBox="0 0 288.87 76.81"><defs><style>.cls-1{fill:#fff;fill-rule:evenodd;}</style></defs><title>logo</title><g id="Слой_2" data-name="Слой 2"><g id="Слой_1-2" data-name="Слой 1"><path class="cls-1" d="M18.68,4.48A4.42,4.42,0,0,0,14.27.07H4.41A4.42,4.42,0,0,0,0,4.48V72.24a4.42,4.42,0,0,0,4.41,4.41c14.34,0,28.57,0,43,0V70.27c0-5.48-2.23-11.65-11.57-11.65-5.65,0-11.56.16-17.18,0Z"/><path class="cls-1" d="M256.88,32.45c3.43-8.32,7.42-17.53,10.85-25.85,2.75-6.68,5-6.6,12.54-6.6h8.6L275.15,33.87l13,42.71-8.84.06c-9.74.06-10.64-.64-13.21-9.53l-9.23-31.77V76.61c-4.76,0-7.8,0-12.55,0-5.34,0-6.13-2-6.13-6.13v-66A4.42,4.42,0,0,1,242.61,0h9.86a4.42,4.42,0,0,1,4.41,4.41Z"/><path class="cls-1" d="M88.54,57.12a21,21,0,0,0,10-12.45,20.15,20.15,0,0,0,.88-5.33c0-.52,0-1,0-1.57s0-1-.1-1.53a21,21,0,0,0-2.54-8A21.24,21.24,0,0,0,91.57,22a21.57,21.57,0,0,0-7.22-3.81,21,21,0,0,0-12.43.07c-6,1.93-10.14,3-16.27-.79a17.28,17.28,0,0,1-5.26-5.13,38.58,38.58,0,0,1,8.76-7,38.2,38.2,0,0,1,38.23,0,38.65,38.65,0,0,1,9.14,7.36A37.92,37.92,0,0,1,113,22.59a38.46,38.46,0,0,1,3.24,11.81,23.52,23.52,0,0,1,.19,2.71l0,1.39c0,.29,0,.6,0,.91a22.31,22.31,0,0,0,.67,4.59,20.06,20.06,0,0,0,2,4.86,21.57,21.57,0,0,0,5.26,6.24,21,21,0,0,0,7.22,3.79,21.39,21.39,0,0,0,16.46-1.77,21,21,0,0,0,10-12.45A20.06,20.06,0,0,0,159,39.9c0-.9,0-1.79,0-2.69,0-.32-.05-.64-.08-1a21,21,0,0,0-2.54-8A21.36,21.36,0,0,0,151.12,22a21.76,21.76,0,0,0-7.22-3.81,21,21,0,0,0-12.44.07c-6,1.93-10.14,3-16.27-.79a17.14,17.14,0,0,1-5.25-5.13,38.53,38.53,0,0,1,8.75-7,38.2,38.2,0,0,1,38.23,0,38.18,38.18,0,0,1,18.89,29.06,40.08,40.08,0,0,1,.21,5.11,22,22,0,0,0,.66,4.47,19.85,19.85,0,0,0,2,4.86c9.07,16.19,33.51,14.08,39-4.19a21.37,21.37,0,0,0-7-22.71,21.76,21.76,0,0,0-7.22-3.81,21,21,0,0,0-12.43.07c-6,1.93-10.14,3-16.28-.79a17.14,17.14,0,0,1-5.25-5.13,38.36,38.36,0,0,1,8.76-7,37.84,37.84,0,0,1,10.53-4.14,38.29,38.29,0,1,1-19.81,63.12c-.49-.54-1-1.1-1.43-1.66a40,40,0,0,1-4,4.19,38.33,38.33,0,0,1-54.12-2.53c-.5-.55-1-1.11-1.45-1.69A38.37,38.37,0,0,1,70.05,75.94,38.28,38.28,0,0,1,44,21.21a17.23,17.23,0,0,1,6.62,3.18,16.69,16.69,0,0,1,4.72,5.87c1.74,3.61,1.46,5.54,1.59,9.15A21.65,21.65,0,0,0,57.64,44a19.67,19.67,0,0,0,2,4.86,21.54,21.54,0,0,0,5.25,6.24,21.34,21.34,0,0,0,23.68,2Z"/></g></g></svg>